<svg width="24" height="23" viewBox="0 0 24 23" fill="none" xmlns="http://www.w3.org/2000/svg">
<path d="M13.6847 7.07631L10.2369 7.08167L8.8916 3.83252L13.6847 7.07631Z" fill="#F6851B"/>
<path d="M8.8916 3.83322L15.0763 3.82031L13.6847 7.07701L8.8916 3.83322Z" fill="#F6851B"/>
<path d="M10.2365 7.08208L1.55859 0.555176L8.89121 3.83293L10.2365 7.08208Z" fill="#E4761B"/>
<path d="M22.3759 0.5L13.6851 7.0767L15.0767 3.82L22.3759 0.5Z" fill="#E2761B"/>
<path d="M5.07923 9.86134L1.14708 8.83697L0.936035 7.91992L5.07923 9.86134ZM1.28155 9.93865L1.14702 8.83697L5.07923 9.86134L1.28155 9.93865ZM1.83166 11.5299L5.07923 9.86134L6.76784 10.1613L1.83166 11.5299Z" fill="#763D16"/>
<path d="M1.28125 9.93856L5.07892 9.86125L1.83136 11.5298L1.28125 9.93856ZM18.894 9.84671L23.0425 7.88916L22.8297 8.81016L18.894 9.84671ZM22.6933 9.91622L18.894 9.84671L22.8297 8.81023L22.6933 9.91622ZM22.1399 11.5141L17.183 10.1508L18.894 9.84671L22.1399 11.5141Z" fill="#763D16"/>
<path d="M22.6936 9.91587L22.1402 11.5138L18.8943 9.84635L22.6936 9.91587ZM5.24662 4.87402L5.07922 9.8609L0.936035 7.91949L5.24662 4.87402ZM6.7679 10.1608L5.07922 9.8609L5.24662 4.87402L6.7679 10.1608Z" fill="#763D16"/>
<path d="M6.86621 20.2956L8.15489 19.6136L8.3803 19.5605L6.86621 20.2956ZM15.5968 19.5649L15.7958 19.6183L17.0529 20.303L15.5968 19.5649Z" fill="#E2761B"/>
<path d="M23.0432 7.89008L18.8947 9.84763L18.6938 4.84961L23.0432 7.89008Z" fill="#763D16"/>
<path d="M18.6933 4.84961L18.8942 9.84763L17.1831 10.1517L18.6933 4.84961Z" fill="#763D16"/>
<path d="M6.86682 20.2964L1.35217 22.3335L0.000976562 16.8169L6.86682 20.2964Z" fill="#E4761B"/>
<path d="M0.424316 8.25156L0.936566 7.91992L1.14755 8.83697L0.424316 8.25156Z" fill="#763D16"/>
<path d="M23.9998 16.8198L22.6472 22.3562L17.0527 20.3036L23.9998 16.8198Z" fill="#E4761B"/>
<path d="M5.2459 4.87401L10.2361 7.08175L6.76717 10.1608L5.2459 4.87401ZM1.28082 9.93821L0.565204 9.2392L1.1463 8.83647L1.28082 9.93821ZM17.1825 10.1504L13.6839 7.07639L18.6927 4.84826L17.1825 10.1504ZM23.5548 8.22037L22.8293 8.80987L23.0421 7.88886L23.5548 8.22037ZM0.935311 7.91948L0.297363 4.09033L5.2459 4.87401L0.935311 7.91948ZM1.83093 11.5294L0.805347 10.2447L1.28076 9.93821L1.83093 11.5294Z" fill="#763D16"/>
<path d="M22.694 9.91621L22.8304 8.81016L23.4119 9.21307L22.694 9.91621ZM18.6938 4.84868L23.6684 4.04297L23.0432 7.88915L18.6938 4.84868Z" fill="#763D16"/>
<path d="M5.22563 11.8835L0.000976562 16.8168L1.83215 11.5303L5.22563 11.8835Z" fill="#F6851B"/>
<path d="M22.1406 11.5139L22.694 9.91602L23.1698 10.2227L22.1406 11.5139Z" fill="#763D16"/>
<path d="M4.40202 16.1769L0 16.8166L5.22459 11.8833L4.40202 16.1769Z" fill="#F6851B"/>
<path d="M0 16.8166L4.40202 16.1768L6.86585 20.296L0 16.8166Z" fill="#E4761B"/>
<path d="M18.6802 11.8735L22.14 11.5142L23.9998 16.8196L18.6802 11.8735ZM18.6802 11.8735L23.9998 16.8196L19.5034 16.177L18.6802 11.8735Z" fill="#F6851B"/>
<path d="M17.0527 20.3041L19.5035 16.1777L23.9998 16.8204L17.0527 20.3041Z" fill="#E4761B"/>
<path d="M1.83203 11.5304L6.76821 10.1618L5.22545 11.8836L1.83203 11.5304ZM22.1405 11.5147L18.6808 11.8741L17.1836 10.1514L22.1405 11.5147Z" fill="#F6851B"/>
<path d="M6.76841 10.1616L10.2373 7.08251L10.4981 11.9107L6.76841 10.1616ZM10.4981 11.9107L5.22559 11.8834L6.76841 10.1616L10.4981 11.9107ZM17.1837 10.1512L18.6809 11.8739L13.3733 11.9087L17.1837 10.1512ZM13.3733 11.9086L13.6851 7.07715L17.1837 10.1512L13.3733 11.9086Z" fill="#E4761B"/>
<path d="M1.5581 0.555151L10.236 7.08206L5.24584 4.87432L1.5581 0.555151ZM5.24584 4.87432L0.297363 4.09065L1.55804 0.555151L5.24584 4.87432ZM22.3746 0.5L23.6672 4.04292L18.6926 4.84863L22.3746 0.5ZM18.6926 4.84863L13.6838 7.07676L22.3746 0.5L18.6926 4.84863Z" fill="#763D16"/>
<path d="M10.2373 7.08244L13.6851 7.07715L13.3733 11.9086L10.2373 7.08244Z" fill="#F6851B"/>
<path d="M13.3734 11.9091L10.4981 11.9112L10.2373 7.08301L13.3734 11.9091Z" fill="#F6851B"/>
<path d="M6.8666 20.2962L4.40283 16.1769L7.36326 16.0356L6.8666 20.2962ZM17.0532 20.3036L16.5128 16.0356L19.504 16.1773L17.0532 20.3036ZM7.32047 13.9146L5.22541 11.8833L10.4979 11.9107L7.32047 13.9146Z" fill="#CD6116"/>
<path d="M5.22541 11.8833L7.36327 16.0355L4.40283 16.1768L5.22541 11.8833Z" fill="#F6851B"/>
<path d="M5.22559 11.8833L7.32065 13.9146L7.36344 16.0355L5.22559 11.8833Z" fill="#E4751F"/>
<path d="M13.373 11.9083L18.6806 11.8735L16.5628 13.911L13.373 11.9083Z" fill="#CD6116"/>
<path d="M19.5039 16.1769L16.5127 16.0352L18.6807 11.8735L19.5039 16.1769Z" fill="#F6851B"/>
<path d="M18.6806 11.8735L16.5127 16.0353L16.5628 13.911L18.6806 11.8735Z" fill="#E4751F"/>
<path d="M7.90495 20.8974L6.86621 20.2959L9.84867 20.5097L7.90495 20.8974ZM13.9341 20.5128L17.0528 20.3034L15.9815 20.9042L13.9341 20.5128Z" fill="#C0AD9E"/>
<path d="M10.4973 11.9111L9.21796 13.0301L7.31982 13.9152L10.4973 11.9111Z" fill="#CD6116"/>
<path d="M9.81732 19.3286L9.84867 20.5092L6.86621 20.2954L9.81732 19.3286Z" fill="#D7C1B3"/>
<path d="M16.5628 13.9114L14.6575 13.0269L13.373 11.9087L16.5628 13.9114Z" fill="#CD6116"/>
<path d="M10.0839 17.1189L6.86621 20.2953L7.36293 16.0347L10.0839 17.1189Z" fill="#E4761B"/>
<path d="M6.86621 20.2966L10.084 17.1201L9.81739 19.3297L6.86621 20.2966ZM13.9399 19.332L17.0529 20.3039L13.9342 20.5134L13.9399 19.332Z" fill="#D7C1B3"/>
<path d="M13.6699 17.1195L16.5123 16.0347L17.0527 20.3027L13.6699 17.1195Z" fill="#E4761B"/>
<path d="M17.0527 20.3033L13.9398 19.3313L13.6699 17.1201L17.0527 20.3033Z" fill="#D7C1B3"/>
<path d="M7.36268 16.036L7.31982 13.915L9.98806 14.5607L7.36268 16.036Z" fill="#F6851B"/>
<path d="M9.98806 14.56L7.31982 13.9143L9.21796 13.0293L9.98806 14.56Z" fill="#233447"/>
<path d="M16.513 16.0354L13.8735 14.5592L16.5631 13.9111L16.513 16.0354Z" fill="#F6851B"/>
<path d="M13.8735 14.5589L14.6578 13.0264L16.5631 13.9108L13.8735 14.5589Z" fill="#233447"/>
<path d="M9.21826 13.0292L10.4976 11.9102L9.98836 14.5599L9.21826 13.0292ZM14.6573 13.0264L13.873 14.5589L13.3728 11.9082L14.6573 13.0264Z" fill="#CD6116"/>
<path d="M10.6009 13.4327L10.4976 11.9103L13.3728 11.9082L10.6009 13.4327Z" fill="#F6851B"/>
<path d="M9.98877 14.5608L10.498 11.9111L10.6013 13.4336L9.98877 14.5608Z" fill="#E4751F"/>
<path d="M13.3725 11.9087L13.2489 13.4321L10.6006 13.4333L13.3725 11.9087Z" fill="#F6851B"/>
<path d="M13.8733 14.5589L13.2495 13.4316L13.3731 11.9082L13.8733 14.5589Z" fill="#E2761B"/>
<path d="M9.84852 20.5098L10.0224 21.4048L7.90479 20.8976L9.84852 20.5098ZM15.9813 20.9043L13.7536 21.4083L13.934 20.5129L15.9813 20.9043Z" fill="#C0AD9E"/>
<path d="M10.0838 17.119L7.36279 16.0349L9.98817 14.5596L10.0838 17.119ZM13.8728 14.5586L16.5123 16.0348L13.6699 17.1197L13.8728 14.5586Z" fill="#F6851B"/>
<path d="M10.6013 13.4326L10.5473 16.7972L9.98877 14.5598L10.6013 13.4326Z" fill="#E4751F"/>
<path d="M9.98877 14.5596L10.5473 16.797L10.0843 17.119L9.98877 14.5596Z" fill="#F6851B"/>
<path d="M13.2489 13.4316L13.8727 14.559L13.2065 16.7977L13.2489 13.4316Z" fill="#E4751F"/>
<path d="M13.6698 17.1197L13.2065 16.7973L13.8727 14.5586L13.6698 17.1197Z" fill="#F6851B"/>
<path d="M10.6009 13.4328L13.2492 13.4316L13.2068 16.7977L10.6009 13.4328ZM13.2068 16.7977L10.5469 16.7974L10.6009 13.4328L13.2068 16.7977Z" fill="#F6851B"/>
<path d="M10.0226 21.4043L9.84873 20.5092L9.81738 19.3286L10.0226 21.4043ZM13.9399 19.3309L13.9342 20.5123L13.7538 21.4077L13.9399 19.3309Z" fill="#C0AD9E"/>
<path d="M9.81738 19.3289L10.051 18.9854L10.0226 21.4046L9.81738 19.3289ZM10.0226 21.4046L10.051 18.9854L13.6938 18.9872L10.0226 21.4046Z" fill="#C0AD9E"/>
<path d="M13.6941 18.9873L13.7542 21.4081L10.0229 21.4047L13.6941 18.9873ZM13.7542 21.4081L13.6941 18.9873L13.9402 19.3314L13.7542 21.4081Z" fill="#C0AD9E"/>
<path d="M10.0511 18.9849L9.81738 19.3285L10.0839 17.119L10.0511 18.9849ZM13.67 17.1196L13.9399 19.3308L13.6938 18.9868L13.67 17.1196ZM10.5088 16.9978L10.5468 16.7969L13.2068 16.7972L10.5088 16.9978Z" fill="#161616"/>
<path d="M10.084 17.119L10.5469 16.7969L10.5089 16.9978L10.084 17.119Z" fill="#161616"/>
<path d="M13.2074 16.7988L13.2207 16.9998L10.5096 16.9993L13.2074 16.7988ZM13.2207 16.9998L13.2075 16.7988L13.6707 17.1212L13.2207 16.9998ZM10.0846 17.1205L10.2131 17.3335L10.0518 18.9865L10.0846 17.1205Z" fill="#161616"/>
<path d="M10.5089 16.9985L10.2124 17.3327L10.084 17.1197L10.5089 16.9985ZM13.6939 18.9876L13.5167 17.3334L13.6701 17.1203L13.6939 18.9876Z" fill="#161616"/>
<path d="M13.6708 17.1204L13.5174 17.3334L13.2207 16.999L13.6708 17.1204ZM13.6946 18.9876L10.0518 18.9857L10.2131 17.3327L13.6946 18.9876ZM10.2131 17.3327L13.5173 17.3334L13.6946 18.9876L10.2131 17.3327ZM10.2131 17.3327L10.5096 16.9985L13.2207 16.999L10.2131 17.3327Z" fill="#161616"/>
<path d="M13.22 16.9995L13.5166 17.3339L10.2124 17.3332L13.22 16.9995Z" fill="#161616"/>
</svg>
