<svg width="24" height="16" viewBox="0 0 24 16" fill="none" xmlns="http://www.w3.org/2000/svg">
<g clip-path="url(#clip0_593_16742)">
<path d="M4.91409 2.87842C8.82881 -0.959473 15.1765 -0.959473 19.0906 2.87842L19.5617 3.34054C19.6081 3.38567 19.645 3.43965 19.6702 3.49928C19.6954 3.55891 19.7084 3.62299 19.7084 3.68772C19.7084 3.75245 19.6954 3.81653 19.6702 3.87616C19.645 3.93579 19.6081 3.98977 19.5617 4.0349L17.9503 5.61506C17.9029 5.66104 17.8394 5.68675 17.7733 5.68675C17.7072 5.68675 17.6437 5.66104 17.5963 5.61506L16.9475 4.97892C14.2169 2.30229 9.78783 2.30229 7.0572 4.97892L6.36284 5.66009C6.31537 5.70607 6.25187 5.73178 6.18579 5.73178C6.1197 5.73178 6.05621 5.70607 6.00874 5.66009L4.39677 4.0799C4.35027 4.03476 4.31331 3.98074 4.28806 3.92105C4.26282 3.86136 4.24981 3.79722 4.24981 3.73241C4.24981 3.6676 4.26282 3.60346 4.28806 3.54377C4.31331 3.48408 4.35027 3.43006 4.39677 3.38492L4.91409 2.8784V2.87842ZM22.4238 6.14558L23.8581 7.55172C23.9046 7.59686 23.9416 7.65088 23.9668 7.71056C23.9921 7.77025 24.0051 7.8344 24.0051 7.8992C24.0051 7.96401 23.9921 8.02815 23.9668 8.08784C23.9416 8.14753 23.9046 8.20154 23.8581 8.24668L17.3904 14.5872C17.2955 14.6794 17.1684 14.7311 17.036 14.7311C16.9037 14.7311 16.7765 14.6794 16.6816 14.5872L12.0906 10.0873C12.0668 10.0643 12.0351 10.0515 12.0021 10.0515C11.969 10.0515 11.9373 10.0643 11.9135 10.0873L7.32306 14.5872C7.2282 14.6793 7.10119 14.7308 6.96898 14.7308C6.83676 14.7308 6.70976 14.6793 6.61489 14.5872L0.145971 8.24608C0.0994754 8.20094 0.062512 8.14692 0.0372706 8.08724C0.0120293 8.02755 -0.000976563 7.96341 -0.000976562 7.8986C-0.000976563 7.8338 0.0120293 7.76965 0.0372706 7.70996C0.062512 7.65028 0.0994754 7.59626 0.145971 7.55112L1.58032 6.14498C1.67518 6.05289 1.80219 6.00138 1.9344 6.00138C2.06661 6.00138 2.19362 6.05289 2.28848 6.14498L6.87954 10.6448C6.92877 10.6929 7.00798 10.6929 7.05659 10.6448L11.6477 6.14498C11.7425 6.05288 11.8695 6.00137 12.0017 6.00137C12.134 6.00137 12.261 6.05288 12.3558 6.14498L16.9469 10.6448C16.9955 10.6929 17.0747 10.6929 17.1239 10.6448L21.715 6.14498C21.8099 6.05288 21.9369 6.00137 22.0691 6.00137C22.2013 6.00137 22.3283 6.05288 22.4232 6.14498L22.4238 6.14558Z" fill="#3B99FC"/>
</g>
<defs>
<clipPath id="clip0_593_16742">
<rect width="24" height="15.0037" fill="white"/>
</clipPath>
</defs>
</svg>
