<svg width="274" height="144" viewBox="0 0 274 144" fill="none" xmlns="http://www.w3.org/2000/svg">
<g opacity="0.05">
<path fill-rule="evenodd" clip-rule="evenodd" d="M105.054 3.87207L118.167 11.7511L13.1132 186.589L0.000341804 178.71L105.054 3.87207ZM99.5361 62.5583L99.313 92.6321L34.9679 199.72L21.855 191.841L99.5361 62.5583ZM99.1067 142.48L99.3298 112.406L43.7098 204.973L56.8227 212.852L99.1067 142.48Z" fill="#3B4556"/>
<path fill-rule="evenodd" clip-rule="evenodd" d="M174.459 179.25L174.236 209.324L251.917 80.041L238.804 72.162L174.459 179.25ZM155.605 260.132L168.718 268.011L273.771 93.1727L260.659 85.2936L164.363 245.557L164.422 152.395L151.309 144.516L151.237 257.505L155.606 260.13L155.605 260.132ZM174.442 159.476L174.665 129.403L216.949 59.0303L230.062 66.9093L174.442 159.476ZM98.8566 113.001L111.969 120.879L111.898 233.868L98.7852 225.989L98.8566 113.001ZM138.195 136.637L125.083 128.759L125.011 241.747L138.124 249.626L138.195 136.637Z" fill="#9DA2AA"/>
<path fill-rule="evenodd" clip-rule="evenodd" d="M161.876 38.0142L174.989 45.893L174.917 158.881L161.804 151.002L161.876 38.0142ZM148.763 30.1353L135.65 22.2564L135.579 135.244L148.691 143.123L148.763 30.1353ZM122.536 14.3772L109.424 6.49834L109.352 119.486L122.465 127.365L122.536 14.3772Z" fill="#3B4556"/>
</g>
</svg>
