<svg width="254" height="255" viewBox="0 0 254 255" fill="none" xmlns="http://www.w3.org/2000/svg">
<rect width="254" height="255" fill="#F5F5F5"/>
<g opacity="0.1">
<path fill-rule="evenodd" clip-rule="evenodd" d="M114.927 76.4512L120.028 79.5164L79.1584 147.535L74.057 144.47L114.927 76.4512ZM112.78 99.2823L112.693 110.982L87.6607 152.644L82.5593 149.578L112.78 99.2823ZM112.613 130.375L112.7 118.675L91.0617 154.687L96.1631 157.752L112.613 130.375Z" fill="#3B4556"/>
<path fill-rule="evenodd" clip-rule="evenodd" d="M141.927 144.68L141.841 156.38L172.062 106.084L166.96 103.019L141.927 144.68ZM134.593 176.146L139.694 179.212L180.564 111.193L175.462 108.128L138 170.476L138.023 134.233L132.921 131.168L132.893 175.124L134.593 176.146L134.593 176.146ZM141.921 136.988L142.008 125.288L158.458 97.9103L163.559 100.976L141.921 136.988ZM112.515 118.907L117.617 121.972L117.589 165.929L112.488 162.864L112.515 118.907ZM127.82 128.103L122.719 125.038L122.691 168.994L127.792 172.059L127.82 128.103Z" fill="#9DA2AA"/>
<path fill-rule="evenodd" clip-rule="evenodd" d="M137.032 89.7342L142.133 92.7994L142.105 136.756L137.004 133.691L137.032 89.7342ZM131.93 86.669L126.829 83.6038L126.801 127.56L131.903 130.626L131.93 86.669ZM121.727 80.5385L116.626 77.4734L116.598 121.43L121.699 124.495L121.727 80.5385Z" fill="#3B4556"/>
</g>
</svg>
