<svg width="32" height="32" viewBox="0 0 32 32" fill="none" xmlns="http://www.w3.org/2000/svg">
<path d="M28 16C28 22.6274 22.6274 28 16 28C9.37258 28 4 22.6274 4 16C4 9.37258 9.37258 4 16 4C22.6274 4 28 9.37258 28 16Z" fill="#EFEFEF"/>
<path d="M8.75 16.5C8.75 17.4665 9.5335 18.25 10.5 18.25C11.4665 18.25 12.25 17.4665 12.25 16.5C12.25 15.5335 11.4665 14.75 10.5 14.75C9.5335 14.75 8.75 15.5335 8.75 16.5Z" stroke="black" stroke-width="1.5"/>
<path d="M18 12.5L12.5 16L17.5 19.5" stroke="black" stroke-width="1.5" stroke-linecap="round" stroke-linejoin="bevel"/>
<path d="M17.75 11.5C17.75 12.4665 18.5335 13.25 19.5 13.25C20.4665 13.25 21.25 12.4665 21.25 11.5C21.25 10.5335 20.4665 9.75 19.5 9.75C18.5335 9.75 17.75 10.5335 17.75 11.5Z" stroke="black" stroke-width="1.5"/>
<path d="M17.75 20.5C17.75 21.4665 18.5335 22.25 19.5 22.25C20.4665 22.25 21.25 21.4665 21.25 20.5C21.25 19.5335 20.4665 18.75 19.5 18.75C18.5335 18.75 17.75 19.5335 17.75 20.5Z" stroke="black" stroke-width="1.5"/>
</svg>
