<svg width="421" height="401" viewBox="0 0 421 401" fill="none" xmlns="http://www.w3.org/2000/svg">
<path opacity="0.05" fill-rule="evenodd" clip-rule="evenodd" d="M157.21 394.567L167.709 400.875L420.073 -19.1295L388.573 -38.0568L157.24 346.945L157.382 123.142L125.882 104.214L125.71 375.641L157.21 394.567L157.21 394.567ZM181.49 187.651L180.954 259.896L367.563 -50.6739L336.063 -69.6012L181.49 187.651ZM181.458 140.15L181.994 67.9055L283.57 -101.146L315.071 -82.2188L181.458 140.15ZM-0.123935 28.5039L31.3761 47.4311L31.2041 318.857L-0.295571 299.93L-0.123935 28.5039ZM94.3693 85.2887L62.8692 66.3616L62.6976 337.788L94.1973 356.715L94.3693 85.2887Z" fill="#818D9F"/>
</svg>
