<svg width="420" height="503" viewBox="0 0 420 503" fill="none" xmlns="http://www.w3.org/2000/svg">
<path opacity="0.05" fill-rule="evenodd" clip-rule="evenodd" d="M283.877 18.9282L252.375 0L-0.00119739 420.025L31.5006 438.953L262.84 53.9391L262.699 277.748L294.2 296.676L294.372 25.2375L283.875 18.9305L283.877 18.9282ZM238.593 213.234L239.129 140.986L52.5108 451.571L84.0126 470.499L238.593 213.234ZM238.626 260.737L238.09 332.985L136.509 502.045L105.007 483.117L238.626 260.737ZM420.381 100.95L388.879 82.022L388.708 353.46L420.209 372.388L420.381 100.95ZM325.876 44.1661L357.378 63.094L357.206 334.532L325.704 315.604L325.876 44.1661Z" fill="#818D9F"/>
</svg>
