<svg width="24" height="24" viewBox="0 0 24 24" fill="none" xmlns="http://www.w3.org/2000/svg">
<g clip-path="url(#clip0)">
<path d="M0 12C0 15.1826 1.26428 18.2348 3.51472 20.4853C5.76516 22.7357 8.8174 24 12 24C15.1826 24 18.2348 22.7357 20.4853 20.4853C22.7357 18.2348 24 15.1826 24 12C24 8.8174 22.7357 5.76516 20.4853 3.51472C18.2348 1.26428 15.1826 0 12 0C8.8174 0 5.76516 1.26428 3.51472 3.51472C1.26428 5.76516 0 8.8174 0 12H0Z" fill="#627EEA"/>
<path d="M12.374 3V9.6525L17.9968 12.165L12.374 3Z" fill="white" fill-opacity="0.602"/>
<path d="M12.3735 3L6.75 12.165L12.3735 9.6525V3Z" fill="white"/>
<path d="M12.374 16.476V20.9962L18.0005 13.212L12.374 16.476Z" fill="white" fill-opacity="0.602"/>
<path d="M12.3735 20.9962V16.4752L6.75 13.212L12.3735 20.9962Z" fill="white"/>
<path d="M12.374 15.4297L17.9968 12.165L12.374 9.65398V15.4297Z" fill="white" fill-opacity="0.2"/>
<path d="M6.75 12.165L12.3735 15.4297V9.65398L6.75 12.165Z" fill="white" fill-opacity="0.602"/>
</g>
<defs>
<clipPath id="clip0">
<rect width="24" height="24" fill="white"/>
</clipPath>
</defs>
</svg>
