<svg width="16" height="16" viewBox="0 0 16 16" fill="none" xmlns="http://www.w3.org/2000/svg">
<path fill-rule="evenodd" clip-rule="evenodd" d="M10 5.99984H3.33333L3.33333 12.6665H10V5.99984ZM3.33333 4.6665C2.59695 4.6665 2 5.26346 2 5.99984V12.6665C2 13.4029 2.59695 13.9998 3.33333 13.9998H10C10.7364 13.9998 11.3333 13.4029 11.3333 12.6665V5.99984C11.3333 5.26346 10.7364 4.6665 10 4.6665H3.33333Z" fill="#818D9F"/>
<path fill-rule="evenodd" clip-rule="evenodd" d="M3.33301 3.33333C3.33301 2.59695 3.92996 2 4.66634 2H12.6663C13.4027 2 13.9997 2.59695 13.9997 3.33333V11.3333C13.9997 12.0697 13.4027 12.6667 12.6663 12.6667H10.6663V11.3333H12.6663V3.33333H4.66634V5.33333H3.33301V3.33333Z" fill="#818D9F"/>
</svg>
