<svg width="24" height="24" viewBox="0 0 24 24" fill="none" xmlns="http://www.w3.org/2000/svg">
<circle cx="12" cy="12" r="12" fill="#55585B"/>
<path fill-rule="evenodd" clip-rule="evenodd" d="M14.7993 15.874C15.1543 16.3083 15.5793 16.7997 15.5793 16.7997C18.189 16.7197 19.1922 15.0626 19.1922 15.0626C19.1922 11.3826 17.4916 8.39979 17.4916 8.39979C15.7917 7.16552 14.1736 7.1998 14.1736 7.1998L14.0086 7.38266C16.0159 7.97694 16.9491 8.83407 16.9491 8.83407C15.8476 8.24703 14.6405 7.87446 13.3945 7.73694C12.6012 7.65235 11.8004 7.66002 11.0089 7.7598C10.9496 7.7598 10.8988 7.76811 10.8415 7.77747L10.8348 7.77857L10.8081 7.78265C10.3948 7.81694 9.39161 7.96551 8.12842 8.50265C7.69097 8.69693 7.431 8.83407 7.431 8.83407C7.431 8.83407 8.41172 7.93122 10.5365 7.33694L10.419 7.1998C10.419 7.1998 8.80085 7.16552 7.10104 8.39979C7.10104 8.39979 5.40039 11.3826 5.40039 15.0626C5.40039 15.0626 6.39195 16.7197 9.00166 16.7997C9.00166 16.7997 9.43911 16.2854 9.79324 15.8511C8.2934 15.4169 7.7268 14.5026 7.7268 14.5026C7.7268 14.5026 7.84429 14.5826 8.05676 14.6969C8.0576 14.6976 8.05842 14.6984 8.05925 14.6992C8.07087 14.7098 8.08248 14.7205 8.10426 14.7312C8.11738 14.7397 8.13096 14.7465 8.14432 14.7531C8.14878 14.7553 8.15321 14.7575 8.15758 14.7597C8.45181 14.9204 8.75758 15.0598 9.07248 15.1769C9.5566 15.3597 10.1357 15.5426 10.8081 15.6683C11.8184 15.8561 12.8553 15.8599 13.867 15.6797C14.4549 15.5802 15.0294 15.4153 15.5793 15.1883C16.0561 15.0141 16.5114 14.7879 16.9366 14.514C16.9366 14.514 16.3467 15.4511 14.7993 15.874ZM10.4205 11.6699C9.75303 11.6699 9.22559 12.2585 9.22559 12.976C9.22559 13.6936 9.7647 14.2822 10.4205 14.2822C11.0887 14.2822 11.6153 13.6936 11.6153 12.976C11.627 12.2585 11.0887 11.6699 10.4205 11.6699ZM14.6967 11.6699C14.0284 11.6699 13.5018 12.2585 13.5018 12.976C13.5018 13.6936 14.0409 14.2822 14.6967 14.2822C15.3641 14.2822 15.8916 13.6936 15.8916 12.976C15.8916 12.2585 15.3641 11.6699 14.6967 11.6699Z" fill="white"/>
</svg>
