<svg width="24" height="24" viewBox="0 0 24 24" fill="none" xmlns="http://www.w3.org/2000/svg">
<path fill-rule="evenodd" clip-rule="evenodd" d="M15.6185 23.6101C20.4775 22.0753 24 17.5316 24 12.1653C24 5.53787 18.6274 0.165283 12 0.165283C5.37258 0.165283 0 5.53787 0 12.1653C0 17.8256 3.91904 22.5706 9.19172 23.8349C9.51598 23.7278 9.51599 23.5517 9.51599 23.5517V21.1994C7.89285 21.6085 6.26972 20.9948 5.96539 20.2789C5.66105 19.563 4.84948 18.3357 4.84948 18.3357C3.73358 17.8244 4.03791 17.5176 4.03791 17.5176C5.05236 17.0062 6.06682 18.3357 6.06682 18.3357C6.06682 18.3357 6.57406 19.3585 7.58851 19.7676C8.60297 20.1767 9.61742 19.563 9.61742 19.563C9.51597 18.5403 10.2261 17.9267 10.2261 17.9267C8.50151 17.9267 5.82724 17.1157 5.25527 14.0403C4.6466 10.7676 6.26972 9.23347 6.26972 9.23347C5.5596 7.90392 6.37117 6.16528 6.37117 6.16528C8.1972 6.16528 9.51599 7.39255 9.51599 7.39255C10.2261 6.98345 12.5594 6.98345 12.5594 6.98345C12.5594 6.98345 14.8926 6.98345 15.6027 7.39255C15.6027 7.39255 16.9215 6.16528 18.7475 6.16528C18.7475 6.16528 19.5591 7.90392 18.849 9.23347C18.849 9.23347 20.4721 10.7676 19.8634 14.0403C19.2915 17.1156 16.6172 17.9267 14.8926 17.9267C14.8926 17.9267 15.5804 18.5354 15.6027 19.563C15.6116 19.9728 15.6027 21.1994 15.6027 21.1994V23.5517C15.6027 23.5517 15.6027 23.5751 15.6185 23.6101Z" fill="#55585B"/>
</svg>
