<svg width="158" height="35" viewBox="0 0 158 35" fill="none" xmlns="http://www.w3.org/2000/svg">
<path fill-rule="evenodd" clip-rule="evenodd" d="M12.7266 1.07471L14.3151 2.02922L1.58833 23.2102L-0.000246898 22.2557L12.7266 1.07471ZM12.0581 8.18432L12.0311 11.8276L4.23594 24.801L2.64736 23.8465L12.0581 8.18432ZM12.0061 17.8665L12.0331 14.2232L5.29499 25.4373L6.88356 26.3919L12.0061 17.8665Z" fill="#3B4556"/>
<path fill-rule="evenodd" clip-rule="evenodd" d="M21.1347 22.3213L21.1076 25.9646L30.5184 10.3024L28.9298 9.34794L21.1347 22.3213ZM18.8506 32.1198L20.4392 33.0743L33.166 11.8933L31.5774 10.9388L19.9115 30.3541L19.9187 19.0679L18.3301 18.1134L18.3215 31.8015L18.8508 32.1195L18.8506 32.1198ZM21.1326 19.9257L21.1597 16.2824L26.2822 7.75709L27.8708 8.7116L21.1326 19.9257ZM11.9758 14.2954L13.5643 15.2499L13.5556 28.938L11.9671 27.9835L11.9758 14.2954ZM16.7415 17.1589L15.1529 16.2044L15.1443 29.8925L16.7328 30.847L16.7415 17.1589Z" fill="#9DA2AA"/>
<path fill-rule="evenodd" clip-rule="evenodd" d="M19.6107 5.21091L21.1993 6.1654L21.1906 19.8535L19.602 18.899L19.6107 5.21091ZM18.0221 4.25641L16.4336 3.30191L16.4249 16.99L18.0135 17.9445L18.0221 4.25641ZM14.8449 2.34738L13.2563 1.39289L13.2477 15.081L14.8362 16.0355L14.8449 2.34738Z" fill="#3B4556"/>
<path d="M50.2935 9.9353V17.159L45.0787 9.9353H42.7686V21.7775H45.2825V14.3846L50.6672 21.7775H52.8245V9.9353H50.2935Z" fill="#272E39"/>
<path d="M55.2887 11.424H57.7517V9.14018H55.2887V11.424ZM55.2887 21.7775H57.7687V12.6421H55.2887V21.7775Z" fill="#272E39"/>
<path d="M71.5469 19.5105C70.5447 19.5105 70.0182 18.9692 70.0182 17.9711V14.8075H72.5831V12.7774H70.0182V10.1045H67.5381V12.7774H63.3935V11.9992C63.3935 11.3564 63.7332 11.018 64.3957 11.018H65.7376V9.07251H63.9031C61.9666 9.07251 60.9814 10.1891 60.9814 11.9485V12.7774H59.3847V14.8075H60.9644V21.7775H63.4444V14.8075H67.5381V18.1064C67.5381 20.3564 68.965 21.7775 71.2242 21.7775H72.6001V19.5105H71.5469Z" fill="#272E39"/>
<path d="M80.668 12.6421L78.3748 18.2756L75.9288 12.6421H73.2279L77.1178 21.0839L77.0838 21.1515C76.5233 22.5387 76.2175 22.8602 75.0115 22.8602H74.1622V25.0764H75.1814C77.2367 25.0764 78.2049 24.1459 79.309 21.659L83.3008 12.6421H80.668Z" fill="#272E39"/>
<path d="M90.0568 22.0481C92.9954 22.0481 95.3056 20.0857 95.8491 17.159H93.2502C92.8256 18.6477 91.6195 19.5951 90.0568 19.5951C88.0354 19.5951 86.5236 18.0049 86.5236 15.8733C86.5236 13.7417 88.0354 12.1346 90.0568 12.1346C91.5516 12.1346 92.7406 13.0143 93.2332 14.4015H95.7982C95.2546 11.5932 92.9445 9.68154 90.0568 9.68154C86.5576 9.68154 83.9077 12.3545 83.9077 15.8733C83.9077 19.3752 86.5576 22.0481 90.0568 22.0481Z" fill="#272E39"/>
<path d="M101.888 22.0481C104.724 22.0481 106.848 19.9673 106.848 17.2098C106.848 14.4522 104.724 12.3883 101.888 12.3883C99.0508 12.3883 96.9275 14.4522 96.9275 17.2098C96.9275 19.9673 99.0508 22.0481 101.888 22.0481ZM101.888 19.7135C100.461 19.7135 99.4415 18.6985 99.4415 17.2098C99.4415 15.738 100.461 14.706 101.888 14.706C103.314 14.706 104.334 15.738 104.334 17.2098C104.334 18.6985 103.314 19.7135 101.888 19.7135Z" fill="#272E39"/>
<path d="M113.851 12.4391C112.611 12.4391 111.507 12.9635 110.811 13.7755L110.335 12.6421H108.637V21.7775H111.117V16.9898C111.117 15.518 111.898 14.6045 113.172 14.6045C114.242 14.6045 114.769 15.2643 114.769 16.6515V21.7775H117.249V16.2455C117.249 13.9278 115.941 12.4391 113.851 12.4391Z" fill="#272E39"/>
<path d="M124.733 12.4391C123.493 12.4391 122.389 12.9635 121.693 13.7755L121.217 12.6421H119.518V21.7775H121.998V16.9898C121.998 15.518 122.78 14.6045 124.054 14.6045C125.124 14.6045 125.651 15.2643 125.651 16.6515V21.7775H128.131V16.2455C128.131 13.9278 126.823 12.4391 124.733 12.4391Z" fill="#272E39"/>
<path d="M139.301 17.1929C139.301 14.5537 137.365 12.3883 134.545 12.3883C131.827 12.3883 129.789 14.4692 129.789 17.2098C129.789 19.9504 131.844 22.0481 134.545 22.0481C136.685 22.0481 138.435 20.7793 139.097 18.7831H136.498C136.125 19.4429 135.411 19.8489 134.545 19.8489C133.339 19.8489 132.524 19.1553 132.303 17.9034H139.25C139.284 17.6665 139.301 17.4297 139.301 17.1929ZM134.545 14.503C135.666 14.503 136.464 15.112 136.821 16.2286H132.371C132.66 15.1459 133.441 14.503 134.545 14.503Z" fill="#272E39"/>
<path d="M145.33 22.0481C147.725 22.0481 149.611 20.4917 150.035 18.191H147.538C147.114 19.1722 146.332 19.7135 145.33 19.7135C144.005 19.7135 142.969 18.6139 142.969 17.2098C142.969 15.7887 143.988 14.706 145.33 14.706C146.315 14.706 147.148 15.2474 147.538 16.144H150.001C149.56 13.894 147.725 12.3883 145.347 12.3883C142.561 12.3883 140.455 14.4522 140.455 17.1929C140.455 19.9335 142.561 22.0481 145.33 22.0481Z" fill="#272E39"/>
<path d="M156.118 19.5782C155.2 19.5782 154.691 19.0707 154.691 18.191V14.6383H157.188V12.6421H154.657V10.2736H154.181L150.563 14.097V14.6383H152.211V18.5293C152.211 20.5425 153.451 21.7775 155.472 21.7775H157.239V19.5782H156.118Z" fill="#272E39"/>
</svg>
