<svg width="24" height="24" viewBox="0 0 24 24" fill="none" xmlns="http://www.w3.org/2000/svg">
<circle cx="12" cy="12" r="12" fill="#55585B"/>
<path d="M17.8815 9.89108C17.8195 14.5791 14.8213 17.7903 10.3463 17.9922C8.50061 18.0765 7.16367 17.4803 6 16.7411C7.36397 16.9589 9.05542 16.4137 9.95997 15.6395C8.62302 15.5091 7.83135 14.8287 7.46094 13.7334C7.84724 13.8002 8.25421 13.7827 8.62143 13.7048C7.41484 13.301 6.55322 12.5554 6.50871 10.9927C6.84732 11.1469 7.20023 11.2916 7.6692 11.3202C6.76624 10.8067 6.09856 8.9293 6.86321 7.68774C8.20334 9.15663 9.8153 10.3553 12.4622 10.5174C11.7977 7.67661 15.5621 6.13618 17.1375 8.04542C17.8036 7.91666 18.3457 7.66389 18.8671 7.38887C18.6525 8.0486 18.2392 8.50962 17.7352 8.87843C18.2885 8.80371 18.7781 8.66859 19.1962 8.46193C18.9371 9.00084 18.3695 9.48411 17.8815 9.89108Z" fill="white"/>
</svg>
