<svg width="282" height="60" viewBox="0 0 282 60" fill="none" xmlns="http://www.w3.org/2000/svg">
<path d="M88.1885 17.4538V30.1487L79.0489 17.4538H75V38.2651H79.4061V25.2729L88.8435 38.2651H92.6244V17.4538H88.1885Z" fill="#3B4556"/>
<path d="M96.9433 20.07H101.26V16.0564H96.9433V20.07ZM96.9433 38.2651H101.29V22.2106H96.9433V38.2651Z" fill="#3B4556"/>
<path d="M125.438 34.2812C123.682 34.2812 122.759 33.3298 122.759 31.5757V26.0161H127.254V22.4485H122.759V17.7511H118.412V22.4485H111.148V21.0809C111.148 19.9511 111.743 19.3565 112.905 19.3565H115.256V15.9375H112.041C108.647 15.9375 106.921 17.8997 106.921 20.9917V22.4485H104.122V26.0161H106.891V38.2651H111.237V26.0161H118.412V31.8136C118.412 35.7677 120.913 38.2651 124.872 38.2651H127.284V34.2812H125.438Z" fill="#3B4556"/>
<path d="M141.424 22.2106L137.405 32.1109L133.118 22.2106H128.384L135.202 37.0461L135.142 37.165C134.16 39.6029 133.624 40.1678 131.51 40.1678H130.022V44.0625H131.808C135.41 44.0625 137.107 42.4273 139.042 38.057L146.038 22.2106H141.424Z" fill="#3B4556"/>
<path d="M157.879 38.7408C163.03 38.7408 167.078 35.292 168.031 30.1487H163.476C162.732 32.7649 160.618 34.4298 157.879 34.4298C154.336 34.4298 151.687 31.6352 151.687 27.8891C151.687 24.1431 154.336 21.3187 157.879 21.3187C160.499 21.3187 162.583 22.8647 163.446 25.3026H167.942C166.989 20.3673 162.94 17.0078 157.879 17.0078C151.746 17.0078 147.102 21.7052 147.102 27.8891C147.102 34.0433 151.746 38.7408 157.879 38.7408Z" fill="#3B4556"/>
<path d="M178.614 38.7408C183.586 38.7408 187.307 35.0839 187.307 30.2378C187.307 25.3918 183.586 21.7647 178.614 21.7647C173.642 21.7647 169.921 25.3918 169.921 30.2378C169.921 35.0839 173.642 38.7408 178.614 38.7408ZM178.614 34.6379C176.113 34.6379 174.327 32.8541 174.327 30.2378C174.327 27.6513 176.113 25.8377 178.614 25.8377C181.115 25.8377 182.901 27.6513 182.901 30.2378C182.901 32.8541 181.115 34.6379 178.614 34.6379Z" fill="#3B4556"/>
<path d="M199.582 21.8539C197.409 21.8539 195.474 22.7755 194.253 24.2026L193.42 22.2106H190.443V38.2651H194.789V29.8513C194.789 27.2648 196.159 25.6594 198.392 25.6594C200.267 25.6594 201.19 26.8188 201.19 29.2567V38.2651H205.537V28.5432C205.537 24.4701 203.244 21.8539 199.582 21.8539Z" fill="#3B4556"/>
<path d="M218.655 21.8539C216.481 21.8539 214.546 22.7755 213.326 24.2026L212.492 22.2106H209.515V38.2651H213.861V29.8513C213.861 27.2648 215.231 25.6594 217.464 25.6594C219.339 25.6594 220.262 26.8188 220.262 29.2567V38.2651H224.609V28.5432C224.609 24.4701 222.316 21.8539 218.655 21.8539Z" fill="#3B4556"/>
<path d="M244.187 30.2081C244.187 25.5702 240.793 21.7647 235.851 21.7647C231.088 21.7647 227.515 25.4215 227.515 30.2378C227.515 35.0542 231.117 38.7408 235.851 38.7408C239.602 38.7408 242.669 36.511 243.83 33.0028H239.275C238.62 34.1623 237.369 34.8758 235.851 34.8758C233.737 34.8758 232.308 33.6568 231.921 31.4568H244.098C244.157 31.0406 244.187 30.6243 244.187 30.2081ZM235.851 25.481C237.816 25.481 239.215 26.5513 239.84 28.5135H232.04C232.546 26.6107 233.916 25.481 235.851 25.481Z" fill="#3B4556"/>
<path d="M254.753 38.7408C258.951 38.7408 262.256 36.0056 263 31.9622H258.624C257.879 33.6866 256.51 34.6379 254.753 34.6379C252.431 34.6379 250.615 32.7055 250.615 30.2378C250.615 27.7405 252.402 25.8377 254.753 25.8377C256.48 25.8377 257.939 26.7891 258.624 28.3648H262.94C262.166 24.4107 258.951 21.7647 254.783 21.7647C249.901 21.7647 246.209 25.3918 246.209 30.2081C246.209 35.0244 249.901 38.7408 254.753 38.7408Z" fill="#3B4556"/>
<path d="M273.66 34.4001C272.052 34.4001 271.159 33.5082 271.159 31.9622V25.7188H275.536V22.2106H271.1V18.0484H270.266L263.925 24.7674V25.7188H266.813V32.5568C266.813 36.0947 268.986 38.2651 272.529 38.2651H275.625V34.4001H273.66Z" fill="#3B4556"/>
<path fill-rule="evenodd" clip-rule="evenodd" d="M34.4812 33.6772L36.7049 35.4712L36.5668 12.8985L34.3431 11.1046L34.4812 33.6772ZM32.2575 31.8832L30.0338 30.0892L29.8956 7.51657L32.1194 9.31056L32.2575 31.8832ZM27.8101 28.2952L27.6719 5.72258L25.4482 3.92859L2.85722 31.9608L5.08092 33.7548L25.4793 8.44044L25.5864 26.5012L27.8101 28.2952ZM23.3177 15.6701L7.30465 35.5487L9.52835 37.3427L23.3488 20.182L23.3177 15.6701ZM11.7521 39.1367L23.3798 24.6938L23.4109 29.2057L13.9758 40.9307L11.7521 39.1367Z" fill="#3B4556"/>
<path fill-rule="evenodd" clip-rule="evenodd" d="M25.592 26.4835L23.3683 24.6896L23.5065 47.2622L25.7302 49.0562L25.592 26.4835ZM27.8157 28.2775L30.0394 30.0715L30.1776 52.6441L27.9539 50.8501L27.8157 28.2775ZM32.2632 31.8655L32.4013 54.4381L34.625 56.2321L57.216 28.1999L54.9923 26.4059L34.5939 51.7203L34.4869 33.6595L32.2632 31.8655ZM36.7555 44.4906L52.7686 24.612L50.5449 22.818L36.7245 39.9787L36.7555 44.4906ZM48.3212 21.024L36.6934 35.4669L36.6624 30.955L46.0975 19.23L48.3212 21.024Z" fill="#818D9F"/>
</svg>
