<svg width="15" height="10" viewBox="0 0 15 10" fill="none" xmlns="http://www.w3.org/2000/svg">
<path fill-rule="evenodd" clip-rule="evenodd" d="M10.3599 8.87425C10.7149 9.30853 11.1398 9.79995 11.1398 9.79995C13.7495 9.71995 14.7527 8.06283 14.7527 8.06283C14.7527 4.38286 13.0521 1.40004 13.0521 1.40004C11.3523 0.165762 9.73413 0.200046 9.73413 0.200046L9.56915 0.382902C11.5764 0.977182 12.5097 1.83432 12.5097 1.83432C11.4082 1.24727 10.2011 0.874703 8.95505 0.737184C8.16173 0.652589 7.36097 0.660261 6.56948 0.760041C6.51015 0.760041 6.4593 0.768356 6.40209 0.777712L6.39534 0.778816L6.36867 0.782898C5.95538 0.817184 4.95216 0.965753 3.68897 1.50289C3.25152 1.69717 2.99155 1.83432 2.99155 1.83432C2.99155 1.83432 3.97227 0.931468 6.09704 0.337188L5.97955 0.200046C5.97955 0.200046 4.36139 0.165762 2.66158 1.40004C2.66158 1.40004 0.960938 4.38286 0.960938 8.06283C0.960938 8.06283 1.95249 9.71995 4.56221 9.79995C4.56221 9.79995 4.99966 9.28567 5.35378 8.85139C3.85395 8.41711 3.28735 7.50283 3.28735 7.50283C3.28735 7.50283 3.40483 7.58283 3.61731 7.69711C3.61814 7.69788 3.61897 7.69864 3.6198 7.6994C3.63141 7.71006 3.64303 7.72073 3.66481 7.7314C3.67792 7.73997 3.69151 7.7467 3.70487 7.75332C3.70932 7.75553 3.71375 7.75772 3.71813 7.75997C4.01236 7.92059 4.31813 8.06001 4.63303 8.17711C5.11714 8.35996 5.69625 8.54282 6.36867 8.66854C7.37892 8.8563 8.41582 8.86017 9.4275 8.67996C10.0155 8.58043 10.59 8.41556 11.1398 8.18854C11.6166 8.01436 12.072 7.78818 12.4972 7.51426C12.4972 7.51426 11.9072 8.45139 10.3599 8.87425ZM5.98101 4.67065C5.31358 4.67065 4.78613 5.25925 4.78613 5.97683C4.78613 6.69441 5.32524 7.28301 5.98101 7.28301C6.64927 7.28301 7.17588 6.69441 7.17588 5.97683C7.18755 5.25925 6.64927 4.67065 5.98101 4.67065ZM10.2572 4.67065C9.58896 4.67065 9.06235 5.25925 9.06235 5.97683C9.06235 6.69441 9.60146 7.28301 10.2572 7.28301C10.9247 7.28301 11.4521 6.69441 11.4521 5.97683C11.4521 5.25925 10.9247 4.67065 10.2572 4.67065Z" fill="#3B4556"/>
</svg>
