<svg width="13" height="12" viewBox="0 0 13 12" fill="none" xmlns="http://www.w3.org/2000/svg">
<path d="M10.9674 10.7422L12.9233 1.58605C13.0029 1.19876 12.9565 0.920964 12.7832 0.753866C12.6105 0.586469 12.3823 0.55587 12.0981 0.661468L0.604401 5.0612C0.347291 5.15839 0.173373 5.26819 0.0793307 5.39179C-0.013506 5.51539 -0.0252613 5.63149 0.0461747 5.74189C0.116706 5.85228 0.258674 5.93778 0.471777 5.99988L3.4115 6.91097L10.2356 2.64324C10.4225 2.51964 10.5641 2.49414 10.6612 2.56404C10.7236 2.60874 10.7061 2.67444 10.6082 2.76203L5.08799 7.71705L4.87459 10.729C5.07865 10.729 5.27849 10.633 5.4735 10.4383L6.91036 9.06433L9.88988 11.245C10.458 11.5612 10.8173 11.3941 10.9684 10.7422H10.9674Z" fill="#3B4556"/>
</svg>
