<svg width="14" height="12" viewBox="0 0 14 12" fill="none" xmlns="http://www.w3.org/2000/svg">
<path d="M12.6344 3.29098C12.5724 7.97903 9.57423 11.1902 5.0992 11.3921C3.25354 11.4764 1.9166 10.8803 0.75293 10.141C2.1169 10.3588 3.80835 9.81356 4.7129 9.03937C3.37595 8.90901 2.58428 8.22862 2.21387 7.13331C2.60017 7.20007 3.00714 7.18259 3.37436 7.10469C2.16777 6.7009 1.30615 5.95533 1.26164 4.39265C1.60025 4.54685 1.95316 4.69151 2.42213 4.72013C1.51917 4.20665 0.851492 2.3292 1.61614 1.08764C2.95627 2.55653 4.56823 3.75517 7.2151 3.91732C6.5506 1.07651 10.315 -0.463917 11.8904 1.44532C12.5565 1.31656 13.0986 1.06379 13.62 0.788774C13.4054 1.4485 12.9921 1.90952 12.4882 2.27833C13.0414 2.20362 13.531 2.06849 13.9491 1.86183C13.69 2.40074 13.1225 2.88401 12.6344 3.29098Z" fill="#3B4556"/>
</svg>
