<svg width="16" height="16" viewBox="0 0 16 16" fill="none" xmlns="http://www.w3.org/2000/svg">
<path d="M11.2766 4.50776C11.7422 4.45151 13.4266 3.5812 13.4266 3.5812C15.0203 5.67808 14.9766 7.7187 14.9766 7.7187H11.6359C11.7641 6.44839 11.2766 4.50776 11.2766 4.50776ZM9.64531 1.23276C10.5703 1.12651 13.0437 2.99526 12.9016 3.12339C12.7594 3.25151 11.0969 3.83589 11.0969 3.83589C10.7547 2.26714 9.64531 1.23276 9.64531 1.23276ZM8.30937 4.34995V1.01245C9.75937 1.58433 10.4984 4.03745 10.4984 4.03745C10.1578 4.20933 8.30937 4.34995 8.30937 4.34995ZM5.50937 11.9984L7.6125 11.6843V14.9796C6.14844 14.4671 5.50937 11.9984 5.50937 11.9984ZM4.90937 8.3312H7.6125V11.0843C7.6125 11.0843 5.73594 11.1843 5.30937 11.3984C5.31094 11.4 4.80625 9.45933 4.90937 8.3312ZM5.29531 4.6937C5.82187 4.96558 7.6125 4.92183 7.6125 4.92183V7.7187H4.92656C4.8125 6.74839 5.29531 4.6937 5.29531 4.6937ZM7.6125 1.01245V4.35151L5.4375 4.00933C5.43906 4.00776 6.10625 1.64058 7.6125 1.01245ZM4.84062 3.83745L3.02031 3.09526C4.92656 1.35464 6.83125 1.04058 6.2625 1.32651C5.69375 1.61089 4.84062 3.83745 4.84062 3.83745ZM4.32969 7.66089H1.00781C1.00781 5.79995 2.56719 3.5812 2.56719 3.5812C2.96562 3.9812 4.7 4.52339 4.7 4.52339C4.32969 5.29214 4.32969 7.66089 4.32969 7.66089ZM4.69844 11.5859C4.00156 11.6562 2.58125 12.4843 2.58125 12.4843C1.15937 10.9718 1.00781 8.33276 1.00781 8.33276H4.28594C4.24062 9.24526 4.69844 11.5859 4.69844 11.5859ZM6.25469 14.839C4.55469 14.4968 2.97969 12.9265 2.97969 12.9265L4.89531 12.1703C5.04844 13.3546 6.25469 14.839 6.25469 14.839ZM10.6266 4.6937C10.8406 5.04995 11.0391 7.7187 11.0391 7.7187H8.30937V4.94995C9.21875 5.10776 10.6266 4.6937 10.6266 4.6937ZM10.6562 11.4C9.13594 11.0281 8.31094 11.1421 8.31094 11.1421V8.3312H11.0406C11.0703 9.32026 10.6562 11.4 10.6562 11.4ZM8.30937 14.9812V11.6843C8.83594 11.6843 10.4422 11.9984 10.4422 11.9984C9.81719 14.5812 8.30937 14.9812 8.30937 14.9812ZM11.0406 12.0843L12.9297 12.9687C11.4797 14.6656 9.675 14.7671 9.675 14.7671C10.6844 13.939 11.0406 12.1703 11.0406 12.1703V12.0843ZM11.6359 8.3312H14.9766C15.0047 10.7984 13.3703 12.4687 13.3703 12.4687C13.3141 12.2968 11.2766 11.5125 11.2766 11.5125C11.5422 11.314 11.6359 8.3312 11.6359 8.3312Z" fill="#3B4556"/>
</svg>
